<?xml version="1.0" encoding="utf-8"?>
<!-- Generator: Adobe Illustrator 16.0.0, SVG Export Plug-In . SVG Version: 6.00 Build 0)  -->
<!DOCTYPE svg PUBLIC "-//W3C//DTD SVG 1.1//EN" "http://www.w3.org/Graphics/SVG/1.1/DTD/svg11.dtd">
<svg version="1.1" id="Layer_1" xmlns="http://www.w3.org/2000/svg" xmlns:xlink="http://www.w3.org/1999/xlink" x="0px" y="0px"
	 width="255.512px" height="196.909px" viewBox="0 0 255.512 196.909" enable-background="new 0 0 255.512 196.909"
	 xml:space="preserve">
<g>
	<g>
		<linearGradient id="SVGID_1_" gradientUnits="userSpaceOnUse" x1="127.7563" y1="193.2036" x2="127.7563" y2="0.3871">
			<stop  offset="0" style="stop-color:#7DBEDA"/>
			<stop  offset="1" style="stop-color:#FAD5E5"/>
		</linearGradient>
		<path fill="url(#SVGID_1_)" d="M233.162,125.691l0.476-1.163c2.675-6.062,3.693-15.534,3.693-22.586
			c0-27.149-22.007-49.157-49.157-49.157c-6.863,0-13.396,1.411-19.33,3.951C162.466,27.163,136.167,5,104.688,5
			C68.439,5,39.053,34.386,39.053,70.635c0,10.612,2.521,20.633,6.993,29.503c-0.95-0.071-1.905-0.118-2.874-0.118
			C22.09,100.02,5,117.11,5,138.192s17.09,38.172,38.172,38.172h4.06v2.786c0,7.046,5.711,12.759,12.758,12.759
			c7.046,0,12.758-5.713,12.758-12.759v-2.786h106.634v2.786c0,7.046,5.71,12.759,12.757,12.759c7.046,0,12.759-5.713,12.759-12.759
			v-2.786h19.977c0.168,0,0.332-0.014,0.497-0.023c13.969-0.5,25.141-11.975,25.141-26.064
			C250.512,138.932,243.271,129.286,233.162,125.691z"/>
		<linearGradient id="SVGID_2_" gradientUnits="userSpaceOnUse" x1="127.7563" y1="1" x2="127.7563" y2="200.5288">
			<stop  offset="0" style="stop-color:#00386C"/>
			<stop  offset="1" style="stop-color:#000F3D"/>
		</linearGradient>
		<path fill="url(#SVGID_2_)" d="M192.139,195.909c-8.831,0-16.089-6.869-16.713-15.545H76.705
			c-0.625,8.676-7.882,15.545-16.714,15.545s-16.09-6.869-16.715-15.545h-0.104C19.918,180.364,1,161.446,1,138.192
			c0-22.144,17.156-40.356,38.875-42.044c-3.202-8.097-4.821-16.652-4.821-25.513C35.053,32.238,66.291,1,104.688,1
			c31.03,0,58.473,20.942,66.94,50.413c5.32-1.746,10.867-2.628,16.545-2.628c29.311,0,53.157,23.846,53.157,53.157
			c0,6.403-0.82,15.052-3.042,21.629c9.848,5.12,16.224,15.394,16.224,26.705c0,16.275-12.737,29.479-28.997,30.062
			c-0.21,0.016-0.423,0.026-0.641,0.026h-16.021C208.23,189.04,200.971,195.909,192.139,195.909z M72.749,172.364h106.634
			c2.209,0,4,1.791,4,4v2.786c0,4.83,3.929,8.759,8.757,8.759c4.83,0,8.759-3.929,8.759-8.759v-2.786c0-2.209,1.791-4,4-4
			l20.237-0.017c12.028-0.432,21.377-10.124,21.377-22.071c0-9.326-5.903-17.691-14.69-20.816c-1.03-0.366-1.865-1.138-2.312-2.136
			s-0.465-2.135-0.051-3.146l0.476-1.163c0.014-0.034,0.027-0.067,0.043-0.101c2.475-5.609,3.353-14.804,3.353-20.972
			c0-24.9-20.258-45.157-45.157-45.157c-6.159,0-12.133,1.221-17.756,3.628c-1.1,0.47-2.349,0.425-3.41-0.124
			s-1.822-1.542-2.074-2.71C158.863,29.431,133.527,9,104.688,9C70.703,9,43.053,36.649,43.053,70.635
			c0,9.74,2.208,19.061,6.564,27.703c0.649,1.287,0.555,2.825-0.246,4.023c-0.801,1.198-2.179,1.865-3.623,1.767
			c-0.98-0.073-1.799-0.107-2.576-0.107C24.33,104.02,9,119.349,9,138.192s15.33,34.172,34.172,34.172h4.06c2.209,0,4,1.791,4,4
			v2.786c0,4.83,3.929,8.759,8.758,8.759s8.758-3.929,8.758-8.759v-2.786C68.749,174.155,70.54,172.364,72.749,172.364z"/>
	</g>
	<g>
		<circle cx="80.265" cy="128.19" r="10.943"/>
		<g>
			
				<ellipse transform="matrix(0.7071 0.7071 -0.7071 0.7071 113.1259 -21.6872)" fill="#FFFFFF" cx="82.742" cy="125.711" rx="6.071" ry="5.272"/>
			
				<ellipse transform="matrix(0.7071 0.7071 -0.7071 0.7071 116.0081 -14.7116)" fill="#FFFFFF" cx="75.764" cy="132.689" rx="3.219" ry="2.796"/>
		</g>
	</g>
	<circle fill="#F9BCC1" stroke="#000000" stroke-miterlimit="10" cx="80.473" cy="151.499" r="6.331"/>
	<circle fill="#F9BCC1" stroke="#000000" stroke-miterlimit="10" cx="168.909" cy="151.499" r="6.331"/>
	<g>
		<circle cx="169.153" cy="128.19" r="10.943"/>
		<g>
			
				<ellipse transform="matrix(0.7071 0.7071 -0.7071 0.7071 139.1608 -84.541)" fill="#FFFFFF" cx="171.63" cy="125.711" rx="6.071" ry="5.272"/>
			
				<ellipse transform="matrix(0.7072 0.707 -0.707 0.7072 142.0283 -77.5607)" fill="#FFFFFF" cx="164.652" cy="132.689" rx="3.22" ry="2.796"/>
		</g>
	</g>
	<path fill="none" stroke="#000000" stroke-width="3" stroke-linecap="round" stroke-linejoin="round" stroke-miterlimit="10" d="
		M102.733,146.782c4.433,6.44,12.527,10.753,21.782,10.753c9.255,0,17.349-4.312,21.783-10.753"/>
</g>
</svg>
